<?xml version="1.0" encoding="UTF-8" standalone="no"?>
<!-- Created with Inkscape (http://www.inkscape.org/) -->

<svg
   xmlns:dc="http://purl.org/dc/elements/1.1/"
   xmlns:cc="http://creativecommons.org/ns#"
   xmlns:rdf="http://www.w3.org/1999/02/22-rdf-syntax-ns#"
   xmlns:svg="http://www.w3.org/2000/svg"
   xmlns="http://www.w3.org/2000/svg"
   xmlns:inkscape="http://www.inkscape.org/namespaces/inkscape"
   version="1.1"
   width="536.95001"
   height="211.53751"
   id="svg2"
   xml:space="preserve"><metadata
     id="metadata8"><rdf:RDF><cc:Work
         rdf:about=""><dc:format>image/svg+xml</dc:format><dc:type
           rdf:resource="http://purl.org/dc/dcmitype/StillImage" /></cc:Work></rdf:RDF></metadata><defs
     id="defs6"><clipPath
       id="clipPath18"><path
         d="m 0,0 4295.56,0 0,1692 L 0,1692 0,0 z"
         inkscape:connector-curvature="0"
         id="path20" /></clipPath></defs><g
     transform="matrix(1.25,0,0,-1.25,0,211.5375)"
     id="g10"><g
       transform="scale(0.1,0.1)"
       id="g12"><g
         id="g14"><g
           clip-path="url(#clipPath18)"
           id="g16"><path
             d="m 1890.39,1051.07 c -98.3,0 -200.79,-71.75 -200.79,-71.75 l 0,46.13 c 0,10.1 -4.04,14.16 -14.15,14.16 l -125.46,0 c -10.12,0 -16.19,-6.09 -16.19,-14.16 l 0,-983.3797 c 0,-10.1406 4.06,-16.2187 14.17,-16.2187 l 127.48,0 c 8.08,0 14.15,6.0781 14.15,16.2187 l 0,841.7417 c 0,0 59.17,37.493 131.03,37.493 68.42,0 122.44,-33.957 122.44,-103.606 0,-48.515 0,-775.6287 0,-775.6287 0,-10.1406 6.06,-16.2187 16.18,-16.2187 l 125.44,0 c 10.12,0 14.16,8.0976 14.16,16.2187 l 0,819.7107 c 0,123.457 -75.9,189.289 -208.46,189.289"
             inkscape:connector-curvature="0"
             id="path22"
             style="fill:#100f0d;fill-opacity:1;fill-rule:nonzero;stroke:none" /><path
             d="m 2419.48,526.102 c 0,206.382 60.41,410.757 183.76,410.757 41.77,0 81.91,-13.75 121.42,-45.136 l 0,-727.121 c -30.9,-16.801 -69.78,-32.313 -111.78,-32.313 -134.13,0 -193.4,159.09 -193.4,393.813 z m 446.83,1018.238 -125.46,0 c -10.11,0 -16.19,-6.07 -16.19,-14.17 l 0,-496.1 c -48.16,18.48 -92.01,28.24 -127.45,28.24 -203.76,0 -343.64,-194.787 -343.64,-569.341 C 2253.57,172.09 2389.64,0 2567.22,0 c 74.86,0 136.64,42.8906 181.88,83.1211 l 27.39,-46.4297 c 4.62,-8.0195 8.4,-10.7812 17.68,-10.7812 l 72.14,-0.0586 c 8.09,0 14.17,6.0781 14.17,16.2187 l 0,1488.0997 c 0,10.13 -4.06,14.17 -14.17,14.17"
             inkscape:connector-curvature="0"
             id="path24"
             style="fill:#100f0d;fill-opacity:1;fill-rule:nonzero;stroke:none" /><path
             d="m 3336.85,624.172 c -46.21,0 -130.31,-11.422 -130.31,-11.422 0,0 1.12,33.52 5.14,65.68 18.09,170.832 58.83,257.238 129.17,257.238 61.17,0 103.05,-88.406 113.12,-243.172 1.99,-32.156 1.99,-68.324 1.99,-68.324 l -119.11,0 z m 10.05,436.108 c -208.93,0 -312.06,-273.323 -312.06,-570.76 0,-311.329 147.08,-485.82859 336.18,-485.82859 83.14,0 165.87,32.71879 220.13,62.86719 8.31,4.6211 9.81,11.1406 7.82,19.1797 L 3583.1,151.52 c -1.98,8.039 -6.02,12.05 -16.07,12.05 -4.43,0 -72.96,-20.05 -139.65,-20.05 -154.76,0 -225.73,137.57 -225.73,320.281 0,24.109 0,44.418 0,44.418 0,0 76.92,-10.649 123.13,-10.649 l 291.96,0 0,84.391 c 0,311.5 -109.08,478.319 -269.84,478.319"
             inkscape:connector-curvature="0"
             id="path26"
             style="fill:#100f0d;fill-opacity:1;fill-rule:nonzero;stroke:none" /><path
             d="m 1183.82,185.191 c -35.93,-34.711 -78.99,-52.902 -117.73,-52.902 -38.73,0 -68.656,17.891 -92.668,51.031 -29.211,40.321 -42.848,102.399 -42.848,171.192 0,108.797 40.168,220.437 125.316,220.437 42.13,0 88.42,-13.719 127.93,-45.14 l 0,-344.618 z m 111.7,747.352 c -46.39,91.407 -129.04,131.357 -223.69,131.357 -60.81,0 -155.713,-23.25 -219.1,-51.74 -12.398,-5.57 -20.246,-10.48 -20.246,-20.242 0,-5.801 2.887,-12.461 6.071,-18.223 l 42.699,-91.425 c 4.414,-10.321 11.449,-12.676 17.277,-12.676 6.317,0 11.449,2.988 17.121,6.621 61.825,39.512 107.118,61.23 142.968,61.23 47.42,0 79.64,-31.465 99.5,-78.777 18.49,-44.094 25.66,-105.012 25.66,-175.398 0,-8.981 0.04,-20.688 0.04,-20.688 -38.96,24.379 -106.45,37.813 -140.14,37.813 C 862.41,700.395 764.648,528.18 764.648,344 764.648,145.559 878.902,0 1016.2,0 c 76.47,0 145.69,44.8789 192.05,101.461 0,0 24.67,-58.8399 27.9,-65.9024 3.25,-7.0469 6.67,-9.6484 15.95,-9.6484 l 73.37,-0.0586 c 8.07,0 14.15,6.0781 14.15,16.2187 l 0,570.4497 c 0,140.16 -7.08,247.093 -44.1,320.023"
             inkscape:connector-curvature="0"
             id="path28"
             style="fill:#100f0d;fill-opacity:1;fill-rule:nonzero;stroke:none" /><path
             d="m 4279.32,1039.73 c -17.17,0 -99.34,0 -111.82,0 -12.5,0 -18.86,-6.54 -22.08,-15.02 -7.09,-18.59 -54.35,-143.065 -73.74,-194.628 -13.81,-36.836 -51.02,-142.332 -51.02,-142.332 l -4.33,0.031 c -0.13,0.379 -27.39,76.731 -42.14,114.977 -11.94,30.996 -74.23,195.097 -82.11,215.332 -4.21,10.87 -8.92,21.64 -24.94,21.64 -21.62,0 -108.95,0 -122.43,0 -13.46,0 -21.07,-14.75 -16.73,-23.91 4.36,-9.2 199.43,-453.5 199.43,-453.5 0,0 -209.49,-497.5192 -215.61,-508.6794 -6.12,-11.1797 1.57,-27.7187 16.49,-27.7187 14.87,0 89.06,0 107.29,0 18.26,0 25.46,9.5664 30.94,24.9765 15.42,43.211 38.38,103.2816 70.9,196.1326 21.53,61.528 55.59,169.52 55.59,169.52 l 3.75,0 c 0,0 37.32,-110.063 51.19,-146.051 35.05,-90.988 79.9,-209.8594 84.65,-222.4102 4.95,-13.1289 11.89,-22.1679 24.44,-22.1679 12.56,0 109.59,0 121.67,0 12.04,0 17.6,13.7383 11.94,25.707 -13.55,28.5195 -129.09,309.2811 -209.32,493.8591 0,0 208.24,459.512 212.29,470.882 4.06,11.37 2.86,23.36 -14.3,23.36"
             inkscape:connector-curvature="0"
             id="path30"
             style="fill:#100f0d;fill-opacity:1;fill-rule:nonzero;stroke:none" /><path
             d="m 891.379,1692.31 -141.047,0 c -12.488,0 -20.293,-6.13 -22.094,-15.02 -1.789,-8.93 -211.519,-648.4 -226.758,-701.669 -10.812,-37.766 -46.05,-170.894 -54.503,-202.863 l -72.938,199.14 c -17.73,54.812 -187.598,529.392 -192.574,548.342 -2.75,10.42 -7.539,23.38 -25.805,23.38 l -137.6952,0 c -13.46871,0 -21.08589,-14.77 -16.73824,-23.93 C 4.69141,1512.36 253.418,850.648 353.902,597.871 l 0,-555.8007 c 0,-10.1406 4.059,-16.2187 14.168,-16.2187 l 130.414,0 c 8.086,0 14.157,6.0781 14.157,16.2187 l 0,551.4097 c 83.761,233.946 389.726,1066.13 393.058,1075.45 4.047,11.39 2.856,23.38 -14.32,23.38"
             inkscape:connector-curvature="0"
             id="path32"
             style="fill:#ed1d24;fill-opacity:1;fill-rule:nonzero;stroke:none" /></g></g></g></g></svg>